PathFileType	4	(X/Y/Z)	Run_500 02
DataRate	CameraRate	NumFrames	NumMarkers	Units	OrigDataRate	OrigDataStartFrame	OrigNumFrames
100	100	7	42	mm	100	17	128
Frame#	Time	RASI			RPSI			RTH1			RTH2			RTH3			LTH1			LTH2			LTH3			RTB1			RTB2			RTB3			LTB1			LTB2			LTB3			RCAL			RTOE			RMT5			LCAL			LTOE			LMT5			LACR			RACR			CLAV			C7			RUA1			RUA2			RUA3			RLEL			LUA1			LUA2			LUA3			LLEL			LMEL			RFAsuperior			RFAradius			RFAulna			LFAsuperior			LFAradius			LPSI			RMEL			LFAulna			LASI		
		X1	Y1	Z1	X2	Y2	Z2	X3	Y3	Z3	X4	Y4	Z4	X5	Y5	Z5	X6	Y6	Z6	X7	Y7	Z7	X8	Y8	Z8	X9	Y9	Z9	X10	Y10	Z10	X11	Y11	Z11	X12	Y12	Z12	X13	Y13	Z13	X14	Y14	Z14	X15	Y15	Z15	X16	Y16	Z16	X17	Y17	Z17	X18	Y18	Z18	X19	Y19	Z19	X20	Y20	Z20	X21	Y21	Z21	X22	Y22	Z22	X23	Y23	Z23	X24	Y24	Z24	X25	Y25	Z25	X26	Y26	Z26	X27	Y27	Z27	X28	Y28	Z28	X29	Y29	Z29	X30	Y30	Z30	X31	Y31	Z31	X32	Y32	Z32	X33	Y33	Z33	X34	Y34	Z34	X35	Y35	Z35	X36	Y36	Z36	X37	Y37	Z37	X38	Y38	Z38	X39	Y39	Z39	X40	Y40	Z40	X41	Y41	Z41	X42	Y42	Z42	

17	  0.170000	1043.180024	1077.441834	-199.338841	886.579691	1135.756263	-275.136051	939.720968	961.777208	-154.496298	827.875610	851.281734	-180.192072	799.691854	698.107637	-196.801018	1012.681125	962.331415	-513.793842	1038.274360	808.153161	-456.162486	1166.762472	740.536036	-454.716591	677.700256	465.388185	-270.919089	590.608179	494.305537	-201.160598	514.164394	365.205365	-282.616106	1293.948059	554.321827	-396.587511	1203.974248	444.358610	-438.038240	1262.406137	338.329575	-378.189294	355.495356	393.166283	-273.392362	430.022132	168.770095	-331.677411	381.389996	184.621315	-238.108157	1139.959316	198.411098	-336.865954	1376.214283	201.225106	-347.222674	1328.030511	143.914735	-426.772673	980.410972	1583.570009	-469.468822	1040.129657	1541.404957	-163.776660	1072.603922	1513.412939	-299.563058	950.986480	1584.469810	-302.820420	965.613906	1432.757479	-81.067484	1023.912345	1381.140537	-69.189420	980.433748	1301.084587	-10.806242	970.193868	1234.748774	 17.614527	855.074403	1549.000334	-499.230459	840.886909	1483.516503	-552.967344	742.317336	1470.847289	-559.501395	691.552173	1422.708094	-583.124401	684.326659	1391.367348	-498.621041	1066.227164	1244.653421	-32.725893	1147.580399	1303.287456	-181.178010	1186.405970	1263.227665	-138.577287	727.937802	1348.556131	-598.897689	892.846450	1265.814022	-551.351544	883.837832	1136.918555	-388.872175	947.841311	1206.768115	-67.582359	854.994198	1215.935621	-586.862808	1040.594945	1077.329750	-456.722987	
18	  0.180000	1043.409833	1078.330875	-200.850426	886.175158	1136.894191	-274.647588	943.992026	961.389728	-153.266879	833.769727	848.356423	-178.430447	807.786685	694.660849	-197.191437	1010.932349	961.252550	-514.660174	1033.428429	806.320961	-454.953812	1158.409969	733.105162	-451.862248	671.972671	471.598813	-270.768085	588.621627	509.498075	-201.098794	499.555131	388.151473	-280.666065	1290.817160	548.591132	-391.919910	1214.118032	430.858003	-435.938447	1278.893859	331.416263	-373.118080	342.251518	429.567831	-269.186719	402.256379	201.568962	-329.779719	355.708229	219.478763	-236.030270	1170.356366	181.680202	-335.735995	1405.062824	204.859530	-336.375036	1365.936474	138.858289	-414.115991	980.796057	1584.783942	-470.873435	1041.516023	1542.642429	-165.275406	1073.119517	1514.513148	-301.156269	952.428111	1586.287601	-304.043131	965.933401	1435.602587	-82.129881	1023.369565	1383.409816	-69.486995	979.199497	1304.413080	-10.419519	967.629919	1239.089036	 19.057079	855.240082	1550.852742	-499.278133	840.033898	1485.156166	-551.937873	741.065445	1473.848885	-556.915066	689.653401	1425.503099	-579.554459	684.077964	1393.211958	-495.271545	1064.535608	1244.286659	-31.076617	1146.966777	1297.865296	-181.079399	1184.725398	1258.191044	-137.190547	725.891355	1351.919555	-597.391349	891.958026	1268.825949	-553.550083	882.954860	1136.826070	-388.154214	944.549977	1210.746592	-65.601055	853.688943	1219.605779	-589.394941	1039.631157	1078.456734	-456.581531	
19	  0.190000	1043.888935	1078.143243	-202.046263	886.010178	1136.981234	-273.831722	948.530205	960.470777	-152.523146	839.931182	844.893780	-177.001683	816.001853	690.750487	-197.628046	1009.698538	960.768822	-514.637663	1027.773712	803.746043	-453.689226	1148.802518	724.448753	-449.835569	668.667101	477.312178	-270.998326	589.532505	523.926489	-201.517259	488.257731	411.182307	-278.638932	1286.247265	542.128872	-387.779499	1220.695121	418.437289	-433.480912	1291.958574	324.870066	-368.890055	334.206658	466.771072	-264.782279	376.729376	235.603245	-327.814441	332.775156	255.938114	-233.826611	1196.155815	166.603858	-335.332971	1428.025450	208.833174	-325.039779	1397.734615	137.346930	-403.259316	981.303757	1585.261712	-472.130401	1042.845026	1543.027897	-166.920894	1073.540819	1514.818412	-302.601267	953.674916	1587.293925	-305.396589	965.724945	1438.218129	-82.924761	1022.219649	1385.074019	-69.779061	976.625409	1307.369399	-10.186166	963.292255	1243.030024	 20.390334	855.565794	1551.720396	-499.756645	839.551455	1485.621107	-551.250726	740.373109	1475.094388	-554.987381	688.550288	1426.388601	-576.749461	684.546437	1393.112723	-492.884342	1061.281034	1242.754543	-28.565032	1146.897945	1289.842429	-179.595991	1182.497777	1250.191048	-133.906252	724.825674	1353.424824	-596.381836	891.937157	1270.185965	-555.692752	881.821514	1136.145523	-386.919849	939.944999	1214.331656	-63.830097	853.291333	1221.493105	-591.762950	1038.768665	1079.523698	-456.257943	
20	  0.200000	1044.877241	1076.374853	-202.757598	886.350289	1135.480622	-272.485888	953.136049	958.599400	-152.379286	846.241739	840.603721	-176.022886	824.340692	686.143099	-198.003108	1008.740873	960.320964	-513.356794	1021.222281	800.115335	-452.576434	1137.880561	714.411432	-449.169753	668.890634	482.206609	-271.598509	594.752163	536.775710	-202.341966	482.182658	434.122985	-276.747903	1279.617047	534.599678	-384.670012	1221.877157	407.265050	-430.443981	1299.476726	318.648910	-365.658353	334.166292	504.341096	-260.216946	355.209340	271.189039	-325.910101	314.744151	294.252906	-231.449767	1214.510603	153.989285	-334.652846	1442.218245	212.554464	-314.231078	1419.809656	138.880008	-394.531764	981.932702	1584.545504	-473.283998	1044.018863	1542.059402	-168.642512	1073.847220	1513.920338	-303.847942	954.614348	1587.056074	-306.911380	964.527631	1440.252285	-83.567071	1019.966908	1385.863418	-69.866755	972.076301	1309.720254	-10.068579	956.454047	1246.300970	 21.636006	856.027811	1551.038988	-500.840626	839.571791	1484.241527	-551.114099	740.457822	1473.605203	-554.122263	688.576255	1424.348115	-575.144366	685.932708	1390.184164	-491.829849	1055.658147	1239.588022	-24.860792	1147.362285	1278.222955	-175.633639	1179.262547	1238.171667	-127.627821	725.139851	1352.075985	-596.121307	893.231627	1269.145764	-557.818719	880.556133	1134.617270	-385.106266	933.544891	1217.216332	-62.294068	854.312883	1220.774996	-593.979256	1037.902559	1080.145039	-455.480061	
21	  0.210000	1046.488959	1073.137814	-203.002028	887.327548	1132.449456	-270.641363	957.234088	955.517042	-152.739459	852.246019	835.449915	-175.545169	832.715794	680.833938	-198.074983	1007.334647	958.475350	-511.239081	1014.390077	795.544565	-451.950826	1126.777387	703.876288	-449.871714	672.440631	486.157501	-272.068421	603.999348	547.475576	-202.964671	481.605405	456.421289	-275.218813	1271.245871	526.097664	-382.834877	1217.928343	396.656353	-426.738067	1300.962925	312.199728	-362.741199	342.019546	540.627533	-255.857710	339.053122	307.439934	-324.226747	302.853293	333.186455	-228.945173	1224.480879	143.576914	-331.255506	1447.968765	214.494345	-306.214231	1431.257976	139.210488	-387.053418	982.556931	1582.467194	-474.541906	1044.885866	1539.653717	-170.177190	1074.080586	1511.815358	-304.947822	955.221862	1585.553433	-308.514838	962.081412	1441.271901	-84.455890	1016.337953	1385.780785	-69.443700	965.735532	1311.350292	 -9.846258	947.566303	1248.790333	 22.937460	856.432875	1548.680473	-502.442692	840.001778	1480.891415	-551.573645	741.191876	1469.252132	-554.384660	689.585970	1419.361645	-574.789333	687.967681	1384.617178	-491.902540	1047.786906	1235.067902	-20.112867	1147.671823	1263.690732	-168.545435	1174.638800	1222.989609	-118.361927	726.646133	1347.841653	-596.654120	895.832543	1265.912035	-560.068842	879.546926	1132.313773	-383.092588	925.755171	1219.177463	-60.832954	856.823060	1217.664631	-596.257518	1036.871616	1079.710131	-454.094108	
22	  0.220000	1048.505412	1068.808738	-202.995427	888.730546	1128.292138	-268.613033	960.425924	951.203819	-153.645731	857.569936	829.547830	-175.823965	841.098218	674.878018	-197.670109	1005.106594	954.304174	-509.282154	1007.965710	790.284485	-451.871000	1116.748110	693.870188	-451.294590	678.734081	489.091036	-271.670152	616.232199	556.063871	-202.767110	485.914472	477.244924	-273.841597	1261.850104	516.899597	-382.062997	1210.080165	385.953800	-422.347327	1296.978474	304.757380	-359.304476	355.916119	573.858807	-252.276560	329.445282	342.648100	-322.582307	297.443500	370.912681	-226.381975	1226.044665	134.349561	-323.531233	1446.768032	213.043550	-302.808017	1432.329586	134.492420	-380.572385	983.028034	1579.005462	-476.059416	1045.283892	1536.008016	-171.263218	1074.277811	1508.677179	-305.966154	955.519688	1582.958481	-310.099857	958.465720	1440.961146	-85.824791	1011.367301	1384.822141	-68.375713	958.179944	1312.165080	 -9.295345	937.576943	1250.498183	 24.409614	856.601220	1544.682630	-504.415307	840.725370	1475.681632	-552.580711	742.357017	1462.337663	-555.615430	691.285201	1411.889609	-575.528600	690.360128	1376.932396	-492.793254	1038.316598	1229.721231	-14.557893	1146.871348	1247.372503	-158.348822	1168.326604	1205.998604	-106.841670	729.004263	1341.157702	-597.974256	899.527759	1261.024553	-562.581886	879.066803	1129.404274	-381.344264	917.301329	1220.052614	-59.279542	860.677602	1212.765731	-598.867125	1035.779473	1077.797974	-452.335524	
23	  0.230000	1050.478614	1063.727434	-203.172933	890.081992	1123.488266	-266.908332	962.895153	945.949086	-155.117671	862.302775	823.058978	-177.161988	849.723211	668.210767	-196.796398	1002.277538	948.192240	-508.388832	1002.160949	784.519092	-451.930201	1108.185504	684.824423	-452.282670	687.513114	490.811335	-269.855289	630.727866	563.035144	-201.569086	494.473751	495.769035	-272.082969	1251.849700	507.160787	-381.802562	1199.117554	375.165231	-417.440185	1288.188141	295.736236	-355.304123	373.840679	603.102717	-249.986135	327.325625	374.952486	-320.363911	298.384856	405.901756	-223.722524	1219.219774	125.064349	-312.637142	1439.373797	207.154438	-303.975811	1423.213795	124.338752	-376.426077	983.286526	1574.187463	-477.808833	1045.097297	1531.431948	-171.793984	1074.425645	1504.676161	-306.884440	955.537077	1579.400889	-311.603518	954.054478	1439.267953	-87.522590	1005.360298	1382.878408	-66.856688	949.905575	1312.057407	 -8.375642	927.199721	1251.470943	 25.986523	856.537225	1539.009237	-506.746232	841.781719	1468.672581	-554.097369	743.882779	1453.213832	-557.637389	693.538552	1402.341437	-577.210388	693.105320	1367.382330	-494.438189	1027.856423	1223.788136	 -8.350939	1144.263979	1229.608591	-145.880243	1160.093943	1187.887262	-93.771904	732.097062	1332.409421	-600.051471	904.153957	1254.775086	-565.356533	879.081950	1125.928099	-380.142644	908.679076	1219.783096	-57.616132	865.767740	1206.436465	-601.936801	1035.004080	1074.383631	-450.743606	
